<svg xmlns="http://www.w3.org/2000/svg" viewBox="0 0 353.11 243.34"><defs><style>.cls-1{fill:#231f20;}.cls-2{fill:#1499a7;}</style></defs><g id="Layer_2" data-name="Layer 2"><g id="Layer_1-2" data-name="Layer 1"><polygon class="cls-1" points="37 243.29 0 243.29 0 0 102.05 111.18 179.35 4.13 352.71 3.04 352.98 39.77 198.44 40.74 105.49 169.47 37 94.85 37 243.29"/><path class="cls-2" d="M351.22,243.34l-164.34-.48-.6-17.82c0-.21-.7-21.34,0-66.17.31-20.57,6.57-36.22,18.59-46.51,13.9-11.9,30.26-11.7,35.6-11.26H353.11v37H238.23l-.92-.13c-.76,0-5.31-.16-8.42,2.51-3.49,3-5.49,9.74-5.63,19-.31,20.56-.33,36-.27,46.54l128.34.37Z"/></g></g></svg>