<svg xmlns="http://www.w3.org/2000/svg" viewBox="0 0 353.11 258.97"><defs><style>.cls-1{fill:#231f20;}.cls-2{fill:#1499a7;}</style></defs><g id="Layer_2" data-name="Layer 2"><g id="Layer_1-2" data-name="Layer 1"><polygon class="cls-1" points="37 258.92 0 258.92 0 0 102.01 119.19 179 4.84 352.72 3.66 352.97 40.66 198.79 41.7 105.53 180.2 37 100.13 37 258.92"/><path class="cls-2" d="M351.22,259l-164.34-.48-.6-17.82c0-.21-.7-21.34,0-66.17.31-20.57,6.57-36.22,18.59-46.51,13.9-11.9,30.26-11.7,35.6-11.26H353.11v37H238.23l-.92-.13c-.76,0-5.31-.16-8.42,2.51-3.49,3-5.49,9.74-5.63,18.95-.31,20.56-.33,36-.27,46.54l128.34.37Z"/></g></g></svg>